# xmcd
# 
# Track frame offsets:
#     150
#     17804
#     35458
#     54725
#     73171
#     91617
#     108938
#     117449
#     143664
#     169879
#     185914
#     201949
#     222195
#     238632
#     255069
#     285271
# 
# Disc length: 4393
# 
# Revision: 0
# Processed by: cddbd v1.5.2PL0 Copyright (c) Steve Scherf et al.
# Submitted via: fre:ac v1.0.31
# 
DISCID=e1112710
DTITLE=Mirela Neagu - Mi-e dor - negative
DYEAR=2018
DGENRE=Folk
TTITLE0=In_mii_de_feluri-negativ-nbgv
TTITLE1=In_mii_de_feluri-negativ
TTITLE2=Ps39-negativ
TTITLE3=Intoarcere-Mina-Ianovici-negativ-nbgv
TTITLE4=Intoarcere-Mina-Ianovici-negativ
TTITLE5=Viscol_si_Pustiu-negativ
TTITLE6=Despre_Tihna-negativ
TTITLE7=Mi-e_dor-negativ-nbgv
TTITLE8=Mi-e_dor-negativ
TTITLE9=Rugaciune_III-negativ-nbgv
TTITLE10=Rugaciune_III-negativ
TTITLE11=Un_ceas_negativ
TTITLE12=Ma_doare_si_mi-e_bine-negativ-nbgv
TTITLE13=Ma_doare_si_mi-e_bine-negativ
TTITLE14=Dati_sens_vietii_voastre-negativ
TTITLE15=MP3, Images, Video, Text
EXTD=
EXTT0=
EXTT1=
EXTT2=
EXTT3=
EXTT4=
EXTT5=
EXTT6=
EXTT7=
EXTT8=
EXTT9=
EXTT10=
EXTT11=
EXTT12=
EXTT13=
EXTT14=
EXTT15=Computer only
PLAYORDER=
